<svg version="1.0" xmlns="http://www.w3.org/2000/svg"
 width="512.000000pt" height="512.000000pt" viewBox="0 0 512.000000 512.000000"
 preserveAspectRatio="xMidYMid meet">

<g transform="translate(0.000000,512.000000) scale(0.100000,-0.100000)"
fill="#000000" stroke="none">
<path d="M3281 4413 c-18 -101 -85 -296 -136 -401 -106 -218 -230 -345 -384
-392 -59 -19 -94 -20 -532 -20 l-469 0 0 -90 0 -89 170 -306 c93 -168 170
-307 170 -309 0 -2 -98 -6 -217 -8 -192 -4 -224 -7 -272 -26 -154 -61 -237
-184 -249 -369 l-5 -83 497 0 c273 0 496 -2 496 -5 0 -2 -200 -379 -445 -837
-245 -458 -445 -833 -445 -835 0 -2 37 -3 83 -3 l82 1 411 757 c226 416 415
757 420 757 4 0 212 -340 461 -755 l452 -755 82 -3 81 -3 -20 33 c-49 80 -945
1624 -949 1636 -4 9 69 12 344 12 290 0 357 3 395 16 89 30 167 120 207 240
14 42 57 346 136 945 63 486 118 901 121 922 l6 37 -239 0 -240 0 -12 -67z
m305 -125 c-3 -18 -46 -346 -96 -728 -49 -382 -92 -710 -95 -727 l-6 -33 -552
0 -552 0 -176 318 -176 317 411 5 411 5 75 27 c225 83 406 300 530 638 15 41
35 105 45 143 l18 67 85 0 84 0 -6 -32z m-1348 -1728 l43 -80 -376 0 -375 0
20 39 c25 51 84 98 135 110 22 5 146 9 275 10 l235 1 43 -80z m1122 69 c0 -26
-56 -111 -85 -129 -31 -19 -51 -20 -422 -20 l-389 0 -42 75 c-23 41 -42 77
-42 80 0 3 221 5 490 5 354 0 490 -3 490 -11z"/>
</g>
</svg>
